<svg version="1.1" id="_02-Add-Art" xmlns="http://www.w3.org/2000/svg" x="0" y="0" viewBox="0 0 200 200" style="enable-background:new 0 0 200 200" xml:space="preserve"><path d="M59.2 68.1h81.7c2.2 0 4 1.8 4 4V128c0 2.2-1.8 4-4 4H59.2c-2.2 0-4-1.8-4-4V72.1c0-2.2 1.8-4 4-4z" style="fill:#fff;stroke:#555f66;stroke-width:2;stroke-miterlimit:10"/><path style="fill:#fff" d="M60.1 73H140v54.1H60.1z"/><path d="m83.4 115.5 20.7-20.7c1.5-1.5 3.8-1.5 5.3 0l20.7 20.7M71.7 109.6l9-9c1.5-1.5 3.8-1.5 5.3 0l4.4 4.4" style="fill:none;stroke:#a639b2;stroke-width:2;stroke-miterlimit:10"/><circle cx="72.3" cy="86.9" r="2.3" style="fill:#a639b2"/></svg>