<svg version="1.1" id="_01-Add-Text" xmlns="http://www.w3.org/2000/svg" x="0" y="0" viewBox="0 0 200 200" style="enable-background:new 0 0 200 200" xml:space="preserve"><path d="M59.2 68.1h81.7c2.2 0 4 1.8 4 4V128c0 2.2-1.8 4-4 4H59.2c-2.2 0-4-1.8-4-4V72.1c0-2.2 1.8-4 4-4z" style="fill:#fff;stroke:#555f66;stroke-width:2;stroke-miterlimit:10"/><path d="M89.6 106.8c-.9.1-1.8-.4-2.2-1.3-.9.9-2.1 1.3-3.3 1.3-.9 0-1.8-.2-2.5-.8-.6-.6-1-1.4-.9-2.2-.1-1.2.6-2.3 1.8-2.7.6-.2 1.2-.3 1.8-.4.7-.1 1.3-.3 1.9-.5.3-.2.5-.6.5-.9s-.1-.6-.4-.8c-.3-.2-.6-.3-1-.3s-.7.1-.7.4v.4c0 .4-.2.7-.5.9-.3.3-.7.4-1.2.4s-.9-.1-1.3-.5c-.3-.3-.5-.7-.5-1.2 0-.7.5-1.4 1.1-1.7 1-.5 2-.7 3.1-.6 1.1-.1 2.2.2 3.2.7.8.6 1.3 1.6 1.1 2.7v4.1c0 .4.1.6.3.6h.4c.3 0 .6.1.8.3.2.2.3.5.3.8 0 .4-.2.8-.6 1.1-.1.1-.6.2-1.2.2zm-2.9-4.2v-.4c-.6.2-1.1.4-1.7.5-.5 0-1 .4-1.1.8 0 .5.3.9.8.9h.2c.9.1 1.7-.5 1.8-1.4.1-.1.1-.3 0-.4zM96.4 93.9v3.7c.7-.8 1.8-1.3 2.8-1.3 1.1 0 2.2.5 2.8 1.4.8 1.1 1.1 2.4 1.1 3.7.1 1.4-.3 2.9-1.2 4-.8 1-2 1.5-3.2 1.5-1.3 0-2.5-.6-3.2-1.6v.5c0 .5-.4.9-.8.9h-.2c-.5.1-1.1-.3-1.1-.8v-9.3c0-.7-.1-1-.3-1-.1 0-.2 0-.3.1h-.3c-.5 0-.9-.4-.9-.8v-.2c0-.4.1-.7.3-1 .2-.2.5-.4.9-.4.3 0 .5 0 .8.1.2 0 .5.1.8.1s.7 0 1-.1c.2 0 .4-.1.7-.1.3-.1.6.1.7.4-.4 0-.4.1-.4.2zm1.8 10.4c1.1 0 1.7-.9 1.7-2.8s-.6-2.8-1.7-2.8c-.5 0-1.1.3-1.3.8-.4.6-.6 1.3-.5 2 0 1.9.6 2.8 1.8 2.8zM110.1 99.7c0-.2.1-.4.2-.6-.3-.2-.6-.3-1-.3-.6 0-1.1.3-1.4.7-.4.6-.6 1.2-.5 1.9 0 .7.2 1.4.6 2 .4.5.9.8 1.5.8s1.2-.4 1.4-1c.1-.3.3-.6.5-.8.3-.2.6-.3.9-.2.4 0 .8.1 1.1.4.3.3.4.6.4 1 0 .9-.5 1.8-1.3 2.3-.9.7-2 1-3.1 1-1.4.1-2.7-.4-3.7-1.4s-1.5-2.4-1.4-3.8c-.2-2.7 1.8-5.1 4.5-5.3h.7c1 0 2 .2 2.9.8.7.5 1.1 1.2 1.1 2.1 0 .5-.2.9-.5 1.3-.4.3-.8.5-1.3.5-.4 0-.8-.1-1.1-.3-.4-.4-.5-.8-.5-1.1z" style="fill:#fff;stroke:#555f66;stroke-width:3;stroke-miterlimit:10"/><path d="M89.6 106.8c-.9.1-1.8-.4-2.2-1.3-.9.9-2.1 1.3-3.3 1.3-.9 0-1.8-.2-2.5-.8-.6-.6-1-1.4-.9-2.2-.1-1.2.6-2.3 1.8-2.7.6-.2 1.2-.3 1.8-.4.7-.1 1.3-.3 1.9-.5.3-.2.5-.6.5-.9s-.1-.6-.4-.8c-.3-.2-.6-.3-1-.3s-.7.1-.7.4v.4c0 .4-.2.7-.5.9-.3.3-.7.4-1.2.4s-.9-.1-1.3-.5c-.3-.3-.5-.7-.5-1.2 0-.7.5-1.4 1.1-1.7 1-.5 2-.7 3.1-.6 1.1-.1 2.2.2 3.2.7.8.6 1.3 1.6 1.1 2.7v4.1c0 .4.1.6.3.6h.4c.3 0 .6.1.8.3.2.2.3.5.3.8 0 .4-.2.8-.6 1.1-.1.1-.6.2-1.2.2zm-2.9-4.2v-.4c-.6.2-1.1.4-1.7.5-.5 0-1 .4-1.1.8 0 .5.3.9.8.9h.2c.9.1 1.7-.5 1.8-1.4.1-.1.1-.3 0-.4zM96.4 93.9v3.7c.7-.8 1.8-1.3 2.8-1.3 1.1 0 2.2.5 2.8 1.4.8 1.1 1.1 2.4 1.1 3.7.1 1.4-.3 2.9-1.2 4-.8 1-2 1.5-3.2 1.5-1.3 0-2.5-.6-3.2-1.6v.5c0 .5-.4.9-.8.9h-.2c-.5.1-1.1-.3-1.1-.8v-9.3c0-.7-.1-1-.3-1-.1 0-.2 0-.3.1h-.3c-.5 0-.9-.4-.9-.8v-.2c0-.4.1-.7.3-1 .2-.2.5-.4.9-.4.3 0 .5 0 .8.1.2 0 .5.1.8.1s.7 0 1-.1c.2 0 .4-.1.7-.1.3-.1.6.1.7.4-.4 0-.4.1-.4.2zm1.8 10.4c1.1 0 1.7-.9 1.7-2.8s-.6-2.8-1.7-2.8c-.5 0-1.1.3-1.3.8-.4.6-.6 1.3-.5 2 0 1.9.6 2.8 1.8 2.8zM110.1 99.7c0-.2.1-.4.2-.6-.3-.2-.6-.3-1-.3-.6 0-1.1.3-1.4.7-.4.6-.6 1.2-.5 1.9 0 .7.2 1.4.6 2 .4.5.9.8 1.5.8s1.2-.4 1.4-1c.1-.3.3-.6.5-.8.3-.2.6-.3.9-.2.4 0 .8.1 1.1.4.3.3.4.6.4 1 0 .9-.5 1.8-1.3 2.3-.9.7-2 1-3.1 1-1.4.1-2.7-.4-3.7-1.4s-1.5-2.4-1.4-3.8c-.2-2.7 1.8-5.1 4.5-5.3h.7c1 0 2 .2 2.9.8.7.5 1.1 1.2 1.1 2.1 0 .5-.2.9-.5 1.3-.4.3-.8.5-1.3.5-.4 0-.8-.1-1.1-.3-.4-.4-.5-.8-.5-1.1z" style="fill:#fff"/><path style="fill:none;stroke:#a639b2;stroke-width:2;stroke-miterlimit:10" d="M119.2 86.7v26.6"/></svg>