<svg version="1.1" id="_04-Choose-Product" xmlns="http://www.w3.org/2000/svg" x="0" y="0" viewBox="0 0 200 200" style="enable-background:new 0 0 200 200" xml:space="preserve"><path d="M60.8 123.8c-3.1 0-5.7-2.5-5.7-5.7v-16.8l-2-2c-1.1-1.1-1.7-2.5-1.7-4.1V76.9c0-1.5.6-3 1.7-4.1l3.6-3.6h11.5l3.6-1.5h2.9l.8.7c4.4 3.9 11 3.9 15.4 0l.8-.7h2.9l3.6 1.5h11.5l3.6 3.6c1.1 1.1 1.7 2.5 1.7 4.1v18.5c0 1.5-.6 2.9-1.6 4l-1.7 1.8v16.9c0 3.1-2.5 5.7-5.7 5.7H60.8z" style="fill:#f6f6f6"/><path d="M61.7 120.5c-.8 0-1.4-.6-1.4-1.4v-18l-3.2-3.2c-.3-.3-.4-.7-.4-1.1v-19c0-.4.2-.8.4-1.1l2.4-2.4H70l3.6-1.5h.5c5.9 4.9 14.4 4.9 20.2 0h.5l3.6 1.5H109l2.4 2.4c.3.3.4.7.4 1.1v18.5c0 .4-.2.8-.4 1.1l-2.8 3.2v18.6c0 .8-.6 1.4-1.4 1.4H61.7z" style="fill:#fff"/><path d="M108.6 99.8v-7.3l1.7 1.7M58.5 99.8v-7.3l-1.7 1.7M98.1 72c0 8.1-6.5 14.6-14.6 14.6S68.9 80.1 68.9 72M83.5 82.9v2.3M83.5 86.6v33" style="fill:none;stroke:#555f66;stroke-width:2;stroke-miterlimit:10"/><circle cx="86.2" cy="93.1" r=".7" style="fill:#555f66"/><circle cx="86.2" cy="100.4" r=".7" style="fill:#555f66"/><circle cx="86.2" cy="107.7" r=".7" style="fill:#555f66"/><circle cx="86.2" cy="115" r=".7" style="fill:#555f66"/><path d="M72.6 73.1c.6 6 6 10.4 12 9.8 5.2-.5 9.3-4.6 9.8-9.8" style="fill:none;stroke:#555f66;stroke-width:2;stroke-miterlimit:10"/><path d="m111.5 74.8-2.8-2.8H97.8l-3.6-1.4h-1.3c-5.5 4.9-13.7 4.9-19.2 0h-1.3L68.8 72H58l-2.8 2.8c-.5.6-.9 1.3-.8 2.1v18.5c0 .8.3 1.5.8 2.1l2.8 2.8v17.9c0 1.5 1.3 2.8 2.8 2.8h45.4c1.6 0 2.8-1.3 2.8-2.8v-18l2.4-2.7c.5-.5.8-1.3.8-2.1V76.9c.1-.8-.2-1.5-.7-2.1z" style="fill:none;stroke:#555f66;stroke-width:2;stroke-miterlimit:10"/><path d="M105 132.3c-3.2 0-5.8-2.6-5.8-5.8v-11.8l-2.2-2.1c-.8-.8-1.3-1.9-1.3-3.1V96.1c0-1.2.5-2.3 1.3-3.1l3.5-3.5h8.9V89c0-2.1 1.7-3.7 3.7-3.7H131c2.1 0 3.7 1.6 3.8 3.7v.4h8.9l3.5 3.5c.8.8 1.3 2 1.3 3.1v13.4c0 1.2-.5 2.3-1.3 3.1l-2.1 2.1v11.8c0 3.2-2.6 5.8-5.8 5.8l-34.3.1z" style="fill:#f6f6f6"/><path d="M142.7 113.8v12.7c0 1.9-1.5 3.4-3.4 3.4H105c-1.9 0-3.4-1.5-3.4-3.4v-12.7l-2.8-2.8c-.4-.4-.6-.9-.6-1.5V96.1c0-.5.2-1.1.6-1.5l2.8-2.8h10.3V89c0-.8.6-1.4 1.4-1.4H131c.8 0 1.4.6 1.4 1.3v2.7h10.3l2.8 2.8c.4.4.6.9.6 1.5v13.4c0 .5-.2 1.1-.6 1.5l-2.8 3z" style="fill:#f6f6f6"/><path d="m145.3 95.8-2.6-2.6h-10.9v-4.1h-18.7v4.1h-10.8l-2.6 2.6c-.2.2-.3.5-.3.8v14.3c0 .3.1.6.3.8l1.7 1.7v-4.8h1.4V127c0 1.4 1.1 2.5 2.5 2.5h34.3c1.4 0 2.5-1.1 2.5-2.5v-13.2l3.1-3.1c.2-.2.3-.5.3-.8V96.5c.2-.3 0-.5-.2-.7z" style="fill:#fff"/><path d="M142.7 113.8v-5.2M101.5 113.8v-5.2M122.1 97.3v30.6M113.5 89.4l8.6 5.8 8.6-5.8" style="fill:none;stroke:#555f66;stroke-width:2;stroke-miterlimit:10"/><path d="m111.8 91.8 6.9 6.9 3.4-3.4 3.4 3.4 6.9-6.9" style="fill:none;stroke:#555f66;stroke-width:2;stroke-miterlimit:10"/><path d="M142.7 113.8v12.7c0 1.9-1.5 3.4-3.4 3.4H105c-1.9 0-3.4-1.5-3.4-3.4v-12.7l-2.8-2.8c-.4-.4-.6-.9-.6-1.5V96.1c0-.5.2-1.1.6-1.5l2.8-2.8h10.3V89c0-.8.6-1.4 1.4-1.4H131c.8 0 1.4.6 1.4 1.3v2.7h10.3l2.8 2.8c.4.4.6.9.6 1.5v13.4c0 .5-.2 1.1-.6 1.5l-2.8 3z" style="fill:none;stroke:#555f66;stroke-width:2;stroke-miterlimit:10"/><path style="fill:#fff;stroke:#a639b2;stroke-width:2;stroke-miterlimit:10" d="M137.3 111.6h-8l4-4z"/><path style="fill:none;stroke:#555f66;stroke-width:2;stroke-miterlimit:10" d="M126.9 111.6h12.8"/></svg>