<svg version="1.1" id="_03-Upload" xmlns="http://www.w3.org/2000/svg" x="0" y="0" viewBox="0 0 200 200" style="enable-background:new 0 0 200 200" xml:space="preserve"><path d="M129.2 82.9c-5.3-11.3-16.7-18.5-29.2-18.5s-23.8 7.2-29.2 18.5C58.3 84.2 49.3 95.5 50.6 108c1.2 11.6 11 20.3 22.6 20.4l26.5.1h.6l26.5-.1c12.6 0 22.7-10.3 22.7-22.8 0-11.8-8.8-21.5-20.3-22.7z" style="fill:#f6f6f6"/><path d="M73 86c5.8-14.8 22.5-22.1 37.3-16.3s22.1 22.5 16.3 37.3c-4.3 11.1-15 18.4-26.9 18.3l-26.5-.1c-10.8.1-19.6-8.7-19.7-19.5 0-10.8 8.7-19.6 19.5-19.7z" style="fill:#f6f6f6"/><path d="M127 86c-5.8-14.8-22.5-22.1-37.3-16.3S67.6 92.2 73.4 107c4.3 11.1 15 18.4 26.9 18.3l26.5-.1c10.8.1 19.6-8.7 19.7-19.5 0-10.8-8.7-19.6-19.5-19.7z" style="fill:#f6f6f6"/><path d="M126.9 88.8h-1.1l-.4-1c-4.1-10.5-14.2-17.3-25.4-17.3h-1.8c-10.5 0-20.1 6.9-23.9 17.3l-.4 1h-1c-9.1.2-16.6 8.2-16.6 17.9 0 9.9 7.5 18 16.8 18l24.9.2h2.2l26.5-.1c9.9-.6 17.5-9.1 17-19-.5-9.2-7.7-16.4-16.8-17z" style="fill:#fff"/><path d="M127 86c-4.3-11.1-15.1-18.4-27-18.4S77.3 74.9 73 86c-10.8.1-19.5 8.9-19.5 19.7.1 10.8 8.9 19.5 19.7 19.5l26.5.1h.6l26.5-.1c10.8.1 19.6-8.7 19.7-19.5 0-10.8-8.7-19.6-19.5-19.7z" style="fill:none;stroke:#555f66;stroke-width:2;stroke-miterlimit:10"/><path d="M125.7 96.4c1.4 0 2.7.6 3.5 1.7l11.2 14.4c1.3 1.7 1 4.2-.7 5.5-.7.5-1.5.8-2.4.8h-.5l-.1 12.3c0 2.5-2 4.5-4.5 4.4l-13.4-.1c-2.5 0-4.5-2-4.4-4.5l.1-12.3h-.5c-2.2 0-3.9-1.8-3.9-3.9 0-.9.3-1.7.8-2.4L122.2 98c.8-1 2.1-1.6 3.5-1.6z" style="fill:#f6f6f6"/><path d="m127 99.8 11.2 14.4c.4.5.3 1.2-.2 1.6-.2.1-.4.2-.7.2H134l-.1 15.1c0 .9-.8 1.7-1.7 1.7l-13.4-.1c-.9 0-1.7-.8-1.7-1.7v-15.1h-3.3c-.6 0-1.1-.5-1.1-1.1 0-.2.1-.5.2-.7l11.3-14.3c.6-.7 1.6-.9 2.4-.3.2.1.3.2.4.3z" style="fill:#f6f6f6"/><path d="m113.1 114.1 10.6-13.4c.4-.5 1.1-.6 1.6-.2l.2.2 11.4 14.8h-4.6v16.1c0 .6-.5 1.1-1.1 1.1l-12-.1c-1.1 0-1.9-.9-1.9-1.9v-14.8H114c-.6 0-1.1-.4-1.2-1.1 0-.2.1-.4.3-.7z" style="fill:#fff"/><path d="m127 99.8 11.2 14.4c.4.5.3 1.2-.2 1.6-.2.1-.4.2-.7.2H134l-.1 15.1c0 .9-.8 1.7-1.7 1.7l-13.4-.1c-.9 0-1.7-.8-1.7-1.7v-15.1h-3.3c-.6 0-1.1-.5-1.1-1.1 0-.2.1-.5.2-.7l11.3-14.3c.6-.7 1.6-.9 2.4-.3.2.1.3.2.4.3z" style="fill:none;stroke:#a639b2;stroke-width:2;stroke-miterlimit:10"/></svg>